<?xml version="1.0" encoding="utf-8"?>
<!-- Generator: Adobe Illustrator 26.0.0, SVG Export Plug-In . SVG Version: 6.00 Build 0)  -->
<svg version="1.1" id="Layer_1" xmlns="http://www.w3.org/2000/svg" xmlns:xlink="http://www.w3.org/1999/xlink" x="0px" y="0px"
	 viewBox="0 0 576 576" style="enable-background:new 0 0 576 576;" xml:space="preserve">
<style type="text/css">
	.st0{fill:#231F20;}
</style>
<path class="st0" d="M508.2,227.3h-29.6c-3.4-10.8-7.8-21.3-12.9-31.2l21-21c4.1-4.1,4.1-10.8,0-14.9l-70.9-70.9
	c-4.1-4.1-10.8-4.1-14.9,0l-21,21c-9.9-5.2-20.4-9.5-31.2-12.9V67.8c0-5.8-4.7-10.6-10.6-10.6H237.9c-5.8,0-10.6,4.7-10.6,10.6v29.6
	c-10.8,3.4-21.3,7.8-31.2,12.9l-21-21c-4.1-4.1-10.8-4.1-14.9,0l-70.9,70.9c-4.1,4.1-4.1,10.8,0,14.9l21,21
	c-5.2,9.9-9.5,20.4-12.9,31.2H67.8c-5.8,0-10.6,4.7-10.6,10.6v100.2c0,5.8,4.7,10.6,10.6,10.6h29.6c3.4,10.8,7.8,21.3,12.9,31.2
	l-21,21c-4.1,4.1-4.1,10.8,0,14.9l70.9,70.9c4.1,4.1,10.8,4.1,14.9,0l21-21c9.9,5.2,20.4,9.5,31.2,12.9v29.6
	c0,5.8,4.7,10.6,10.6,10.6h100.2c5.8,0,10.6-4.7,10.6-10.6v-29.6c10.8-3.4,21.3-7.8,31.2-12.9l21,21c4.1,4.1,10.8,4.1,14.9,0
	l70.9-70.9c4.1-4.1,4.1-10.8,0-14.9l-21-21c5.2-9.9,9.5-20.4,12.9-31.2h29.6c5.8,0,10.6-4.7,10.6-10.6V237.9
	C518.8,232.1,514,227.3,508.2,227.3z M288,376.9c-49.1,0-88.9-39.8-88.9-88.9c0-49.1,39.8-88.9,88.9-88.9
	c49.1,0,88.9,39.8,88.9,88.9C376.9,337.1,337.1,376.9,288,376.9z"/>
</svg>
