<svg xmlns="http://www.w3.org/2000/svg" viewBox="0 0 72 72"><defs><style>.cls-1{fill:#ff595e;}.cls-2{fill:#ffca3a;}.cls-3{fill:#8ac926;}.cls-4{fill:#1982c4;}.cls-5{fill:#6a4c93;}.cls-6{fill:#3a4c8e;}</style></defs><g id="Layer_4" data-name="Layer 4"><path class="cls-1" d="M53.41,28.46c0,.3,0,.58,0,.87-.08-.12-.19-.24-.28-.35-.22-.27-.45-.54-.7-.82a15.45,15.45,0,0,0-5.19-11.29l.51-.13.68-.13A16.46,16.46,0,0,1,53.41,28.46Z"/><path class="cls-2" d="M52,35.23a16.49,16.49,0,0,1-10.9,9.21,3.46,3.46,0,0,0,.22-.31c.22-.31.43-.64.64-1h0a15.54,15.54,0,0,0,9.38-8.95c.08.1.14.2.21.3S51.83,35,52,35.23Z"/><path class="cls-3" d="M35.73,43.94l0,.06-.24.27a7.81,7.81,0,0,1-.55.59A16.53,16.53,0,0,1,23,37.32l.07,0c.44.13.91.25,1.4.38A15.51,15.51,0,0,0,35.73,43.94Z"/><path class="cls-4" d="M21.36,28.46a15.47,15.47,0,0,0,.45,3.69l-.64-.26c-.17-.08-.34-.16-.49-.25a15.88,15.88,0,0,1-.31-3.18,16.42,16.42,0,0,1,4-10.76c0,.47,0,1,.06,1.51A15.44,15.44,0,0,0,21.36,28.46Z"/><path class="cls-5" d="M43.36,13.27l-.18.05-1.26.46a15.5,15.5,0,0,0-13,1.34,5.8,5.8,0,0,1,.07-.74c0-.16,0-.33.07-.48a16.53,16.53,0,0,1,14.26-.63Z"/><path class="cls-1" d="M52.81,19.63l-.53-.85s.57-2.31-.64-3.12a8.28,8.28,0,0,0-4.16.05c-.39.08-.79.2-1.21.32-7.08,2.22-15.5,9.64-15.5,9.64l-1-3.94c1.81-2.05,9-5.79,13.72-7.4.48-.17.94-.32,1.36-.43s.75-.2,1.07-.26c4.12-.78,5.82-.08,7,1.24S52.81,19.63,52.81,19.63Z"/><path class="cls-2" d="M55.16,39c-.83,1.58-4.54,1.45-4.54,1.45l.62-.79S53.61,39.39,54,38a8.51,8.51,0,0,0-1.56-4.07c-.23-.34-.47-.68-.73-1C47.14,27,37.47,21.72,37.47,21.72l3.38-2.23c2.49,1,8.25,6.29,11.43,10.16.33.4.63.79.9,1.15s.56.8.77,1.14C56.07,35.55,56,37.4,55.16,39Z"/><path class="cls-3" d="M47,29.71c-.25,2.66-3.73,9.68-6.55,13.82-.3.44-.6.85-.89,1.22s-.58.73-.84,1c-2.88,3-4.67,3.48-6.42,3.13S29.6,45,29.6,45l.94.37s.9,2.2,2.35,2.15A8.29,8.29,0,0,0,36.25,45h0c.28-.32.54-.66.8-1h0c4.38-6,6.81-16.87,6.81-16.87Z"/><path class="cls-4" d="M40.77,34.23,39.35,38c-2.74.7-11.3-.33-16-1.71-.53-.15-1-.3-1.41-.46l-.47-.19c-3.85-1.67-4.86-3.21-5.12-5s2.81-3.84,2.81-3.84l0,1s-1.76,1.58-1.22,2.94a7.92,7.92,0,0,0,2.86,2c.39.17.79.33,1.21.47C29,35.72,40.77,34.23,40.77,34.23Z"/><path class="cls-5" d="M32.59,33.77l-4.05-.22c-1.49-2.43-3-11-3.11-15.92a13.62,13.62,0,0,1,0-1.45c0-.16,0-.3,0-.44.45-4.17,1.62-5.59,3.23-6.37s4.5,1.55,4.5,1.55l-1,.27s-2-1.22-3.17-.31A7.59,7.59,0,0,0,28,14.26a10.22,10.22,0,0,0-.1,1.27C27.68,23,32.59,33.77,32.59,33.77Z"/><path class="cls-3" d="M3.06,61.83,3.87,60a5.53,5.53,0,0,0,2.88.86c1,0,1.42-.29,1.42-.71,0-1.39-5-.37-5-3.62,0-1.55,1.27-2.83,3.87-2.83h3.7v1.92H7.06c-1,0-1.4.35-1.4.79,0,1.33,4.94.34,4.94,3.55,0,1.52-1.27,2.82-3.86,2.82A6.92,6.92,0,0,1,3.06,61.83Z"/><path class="cls-4" d="M12.45,55.63H9.77V53.71h7.82v1.92H14.92v6.81H12.45Z"/><path class="cls-5" d="M24.42,60.53v1.91H16.64V53.71h9.23v1.91H19.09v1.47H23v1.85H19.09v1.59Z"/><rect class="cls-1" x="27.31" y="53.71" width="3.39" height="1.91"/><path class="cls-2" d="M28.83,60.74H25.14l-.68,1.7H21.94l3.85-8.73h2.74l3.26,8.73H29.52Zm-.72-1.82L27,56.13l-1.12,2.79Z"/><path class="cls-1" d="M37.39,62.44l0-4.63-2.24,3.77H34l-2.23-3.64v4.5H29.51V53.71h2l3.07,5,3-5h2l0,8.73Z"/><path class="cls-6" d="M43.05,53.82h1.24l-1.52,7.55h4.68l-.21,1.07H41.33Z"/><path class="cls-6" d="M50.65,53.82h1.23l-1.72,8.62H48.93Z"/><path class="cls-6" d="M55.76,54.89l-.6,3h4.33L59.28,59H55l-.69,3.49H53l1.72-8.62h6.09l-.21,1.07Z"/><path class="cls-6" d="M63.86,54.89l-.53,2.65h4.34l-.21,1H63.12l-.55,2.79h5l-.21,1.07H61.13l1.72-8.62h6.09l-.21,1.07Z"/></g></svg>