<svg xmlns="http://www.w3.org/2000/svg" viewBox="0 0 72 72"><defs><style>.cls-1{fill:#ff595e;}.cls-2{fill:#ffca3a;}.cls-3{fill:#8ac926;}.cls-4{fill:#1982c4;}.cls-5{fill:#6a4c93;}</style></defs><g id="Layer_2" data-name="Layer 2"><path class="cls-1" d="M59.62,35.12c0,.4,0,.79,0,1.18-.12-.16-.26-.32-.39-.48l-.94-1.11a21,21,0,0,0-7-15.32l.7-.17.91-.18A22.31,22.31,0,0,1,59.62,35.12Z"/><path class="cls-2" d="M57.66,44.3A22.4,22.4,0,0,1,42.87,56.81l.3-.43c.29-.42.58-.87.87-1.33h0A21.1,21.1,0,0,0,56.78,42.91c.1.13.19.27.28.4C57.28,43.64,57.48,44,57.66,44.3Z"/><path class="cls-3" d="M35.63,56.12l-.07.09-.32.37c-.25.28-.49.55-.74.79A22.38,22.38,0,0,1,18.29,47.14l.1,0,1.9.51A21,21,0,0,0,35.63,56.12Z"/><path class="cls-4" d="M16.14,35.12a21.13,21.13,0,0,0,.6,5c-.32-.12-.61-.24-.86-.35s-.46-.21-.67-.33a22,22,0,0,1-.42-4.32,22.28,22.28,0,0,1,5.42-14.6c0,.64,0,1.33.08,2.05A20.91,20.91,0,0,0,16.14,35.12Z"/><path class="cls-5" d="M46,14.5l-.24.08c-.55.19-1.12.39-1.71.62A21.06,21.06,0,0,0,26.44,17c0-.35,0-.68.1-1l.09-.65A22.44,22.44,0,0,1,46,14.5Z"/><path class="cls-1" d="M58.81,23.14,58.09,22s.77-3.14-.86-4.24a11.28,11.28,0,0,0-5.65.06c-.54.12-1.08.27-1.64.44-9.61,3-21,13.08-21,13.08L27.6,26c2.45-2.79,12.21-7.86,18.61-10,.66-.23,1.29-.42,1.86-.58s1-.27,1.44-.35c5.59-1.07,7.91-.1,9.54,1.68S58.81,23.14,58.81,23.14Z"/><path class="cls-2" d="M62,49.4c-1.13,2.14-6.16,2-6.16,2l.84-1.07S59.89,50,60.37,48a11.58,11.58,0,0,0-2.11-5.52q-.46-.69-1-1.38C51.11,33.19,38,26,38,26l4.59-3c3.37,1.35,11.19,8.54,15.5,13.79.45.54.86,1.07,1.22,1.56s.76,1.09,1,1.56C63.24,44.75,63.12,47.25,62,49.4Z"/><path class="cls-3" d="M50.87,36.82C50.53,40.43,45.81,50,42,55.57c-.42.6-.82,1.15-1.21,1.65s-.79,1-1.15,1.38c-3.9,4.15-6.33,4.73-8.71,4.26s-3.6-5.36-3.6-5.36l1.27.5s1.22,3,3.19,2.92a11.05,11.05,0,0,0,4.55-3.4h0c.37-.43.74-.89,1.09-1.37h0c6-8.11,9.23-22.89,9.23-22.89Z"/><path class="cls-4" d="M42.48,42.94,40.55,48.1c-3.73.95-15.34-.45-21.76-2.31q-1.07-.3-1.92-.63l-.63-.25C11,42.64,9.65,40.55,9.29,38.15S13.11,33,13.11,33l0,1.37s-2.4,2.15-1.66,4a10.63,10.63,0,0,0,3.88,2.78c.52.23,1.07.44,1.64.64C26.5,45,42.48,42.94,42.48,42.94Z"/><path class="cls-5" d="M31.37,42.32,25.88,42c-2-3.29-4.13-14.92-4.23-21.59,0-.72,0-1.39,0-2,0-.21,0-.41.05-.6.62-5.65,2.21-7.58,4.39-8.64s6.11,2.11,6.11,2.11l-1.32.36S28.14,10,26.6,11.27a10.42,10.42,0,0,0-1.49,4.58A13.63,13.63,0,0,0,25,17.57C24.71,27.69,31.37,42.32,31.37,42.32Z"/></g></svg>