<svg xmlns="http://www.w3.org/2000/svg" viewBox="0 0 1920 1080"><defs><style>.cls-1{fill:#1982c4;}.cls-2{fill:#ff940a;}.cls-3{fill:#e2e3e2;}.cls-4{fill:#ebb4ff;}.cls-5{fill:#ff595e;}.cls-6{fill:#a6aaab;}.cls-7{fill:none;stroke:#000;stroke-miterlimit:10;}.cls-8{fill:#b3b3b3;}</style></defs><g id="floor2_colors" data-name="floor2 colors"><polygon class="cls-1" points="258.65 615.63 188.48 682.22 183.85 679.68 115.12 641.99 198.03 552.88 244.04 600.5 258.65 615.63"/><polygon class="cls-1" points="445.92 469.71 357.2 527.5 309.66 458.07 406.35 397.54 414.11 410.07 445.92 469.71"/><polygon class="cls-2" points="484.17 365.54 473.46 371.14 475.98 377.43 413.52 408.08 403 391.32 375.83 348.06 452.2 311.77 469.06 348.81 474.89 346.33 484.17 365.54"/><polygon class="cls-3" points="581.44 346.58 528.21 372.51 490.65 294.57 554.59 262.9 554.64 262.86 564.84 294.69 581.44 346.58"/><polygon class="cls-4" points="907.94 303.91 907.82 343.29 865.42 342.92 865.63 332.43 865.64 303.68 907.94 303.91"/><polygon class="cls-5" points="1228.17 299.55 1209.69 366.8 1019 331.45 1021.34 263.54 1060.17 269.49 1194.42 293.03 1228.17 299.55"/><polygon class="cls-3" points="1392.11 295.79 1356.93 367.05 1301.18 343.1 1329.58 264.59 1392.11 295.79"/><polygon class="cls-3" points="1469.51 409.22 1435.74 470.5 1416.52 462.33 1422.6 449.55 1397.87 437.37 1392.11 449.66 1351.45 431.14 1385.4 361.58 1407.37 371.5 1403.73 379.65 1469.51 409.22"/><polygon class="cls-3" points="1432.6 314.91 1415.86 350.71 1374.01 332.21 1392.21 295.57 1432.6 314.91"/><polygon class="cls-2" points="1504 346.34 1469.51 409.22 1403.73 379.65 1407.37 371.5 1394.17 365.54 1404.68 345.77 1415.86 350.71 1432.6 314.91 1504 346.34"/><path class="cls-5" d="M1653.4,701.2l-76.71-11L1500,765.86s-12.36-13.26-67.13-55.89c-23.59-18.36-38.06-27.65-64.87-42.35-1.41-.78-2.83-1.54-4.25-2.3-31.71-16.89-71.4-31-109.6-42.24l40.58-96.63L1244,510l21.7-72.62s7.86,1.63,32.65,10.78,84.3,39.09,84.3,39.09l34,19.37"/><path class="cls-5" d="M1737.06,660.28l-78.39,45.52-5.28-4.61c-.71-1-58.43-72.43-58.43-72.43l-81.16-71-3.89,6.36-93.27-57.49,19.1-36.1,25.27-46,91.44,65.76,96.29,82.05Z"/><polygon class="cls-3" points="490.65 294.57 452.2 311.77 469.06 348.81 507.97 330.5 490.65 294.57"/><polygon class="cls-1" points="357.2 527.5 258.65 615.63 244.06 600.48 198.12 552.81 309.58 458.12 329.82 487.62 357.2 527.5"/><polygon class="cls-2" points="1244.23 509.98 1265.91 437.06 1186.1 412.79 1169.02 485.67 1244.23 509.98"/><path class="cls-4" d="M1613,746.29,1568.6,698.2l8.09-8-83.14-67.14-135.39-83.49,24.46-52.36,34,19.37,93.27,57.49,3.89-6.36L1595,629.85s63,76.09,63.71,77C1658.68,706.9,1613,746.29,1613,746.29Z"/><polygon class="cls-3" points="413.52 408.08 475.98 377.43 473.46 371.14 496.02 360.37 529.66 431.94 487.87 451.22 481.17 437.8 458.45 449.43 464.17 461.2 445.92 469.71 413.52 408.08"/><polygon class="cls-5" points="657.62 299.45 673.01 365.36 865.64 332.43 865.64 303.68 865.64 261.7 657.62 299.45"/><polygon class="cls-4" points="907.94 303.91 943.13 303.91 1019.92 304.76 1019 345.4 907.82 343.29 907.94 303.91"/><polygon class="cls-3" points="1148.53 402.58 1136.24 475.77 1169.02 485.67 1185.87 413.94 1148.53 402.58"/><polygon class="cls-4" points="1216.97 340.3 1207.29 376.84 1281.26 399.53 1292.6 366.8 1216.97 340.3"/><polygon class="cls-4" points="588.56 368.73 628.13 356.71 667.88 343.39 676.25 379.22 640.07 389.38 599.1 401.62 588.56 368.73"/><path class="cls-2" d="M1500,765.86l68.58-67.66,59.09,64-22.56,25.94,5.87,4.24-41.43,44.94Q1536.66,800,1500,765.86Z"/><path class="cls-4" d="M1732,769.65s93.15-23.39,116.46,24.5c13.84,28.42-6.49,80.52-43.59,104.09-41.7,26.49-111.1,43-142.88,4.45-20.87-25.34-10.54-90.8,35.59-116.5"/><polygon class="cls-6" points="599.1 401.62 581.44 346.58 528.21 372.51 551.28 420.4 599.1 401.62"/><polygon class="cls-6" points="229.02 716.16 265.69 745.51 272.78 737.54 258.65 718.56 277.54 697.53 301.59 737.09 270.58 783.21 208.82 738.81 229.02 716.16"/><polygon class="cls-6" points="1329.98 422 1357.7 366.08 1301.18 343.1 1281.26 399.53 1329.98 422"/><polygon class="cls-6" points="1694.64 685.07 1722.38 725.87 1758.28 694.6 1737.17 660.56 1694.64 685.07"/></g><g id="floor2"><polygon class="cls-7" points="258.65 615.63 188.48 682.22 183.85 679.68 100.69 634.07 43.16 602.5 142.95 495.55 167.54 521.08 244.06 600.48 258.65 615.63"/><polygon class="cls-7" points="357.2 527.5 258.65 615.63 160.49 513.75 278.39 412.69 357.2 527.5"/><polygon class="cls-7" points="445.92 469.71 357.2 527.5 284.18 421.12 265.81 394.36 363.22 327.85 402.72 391.68 414.11 410.07 445.92 469.71"/><polygon class="cls-7" points="529.66 431.94 487.87 451.22 481.17 437.8 458.45 449.43 464.17 461.2 445.92 469.71 413.52 408.08 475.98 377.43 473.46 371.14 496.02 360.37 529.66 431.94"/><polygon class="cls-7" points="484.17 365.54 473.46 371.14 475.98 377.43 413.52 408.08 403 391.32 375.83 348.06 452.2 311.77 469.06 348.81 474.89 346.33 484.17 365.54"/><polygon class="cls-7" points="599.1 401.62 551.28 420.4 490.65 294.57 554.59 262.9 554.64 262.86 564.84 294.69 599.1 401.62"/><polyline class="cls-7" points="676.25 379.22 657.62 299.45 686.29 294.86 671.9 242.92 662.02 207.29 547.71 241.49 554.59 262.9 564.78 294.69 599.1 401.62"/><polyline class="cls-7" points="1019.92 304.76 943.13 303.91 944.31 173.37 820.46 179.46 822.05 216.84 671.9 242.92 686.29 294.86 825.49 269.13 822.05 216.84 825.49 269.13 865.64 261.7 865.64 304.14"/><polygon class="cls-7" points="907.94 303.91 907.82 343.29 865.64 342.93 865.63 332.43 865.64 303.68 907.94 303.91"/><polyline class="cls-7" points="944.31 173.37 1062.99 178.47 1060.17 269.49"/><path class="cls-7" d="M1194.42,293l33.75,6.52-18.48,67.25L1019,331.45l2.34-67.91,38.83,5.95,1.62-52.28c50.8,8.16,98,18.22,147,25l.24-.67,0,0Z"/><polygon class="cls-7" points="1392.21 295.57 1329.98 422 1281.26 399.53 1329.58 264.59 1392.21 295.57"/><polygon class="cls-7" points="1469.51 409.09 1435.74 470.5 1416.52 462.33 1422.6 449.55 1397.87 437.37 1392.11 449.66 1351.45 431.14 1385.4 361.58 1407.37 371.5 1403.73 379.65 1469.51 409.09"/><polygon class="cls-7" points="1432.6 314.91 1415.86 350.71 1374.01 332.21 1392.21 295.57 1432.6 314.91"/><polygon class="cls-7" points="1504 346.34 1469.51 409.09 1403.73 379.65 1407.37 371.5 1394.17 365.54 1404.68 345.77 1415.86 350.71 1432.6 314.91 1504 346.34"/><polyline class="cls-7" points="1435.74 470.5 1514.56 327.13 1618.14 393.19 1597.36 424.78 1710.28 520.2 1738.11 496.94 1835.99 599.02 1737.17 660.56"/><polygon class="cls-7" points="188.48 682.22 167.33 709.02 163.63 706.32 160.87 704.29 112.42 772.08 41.77 721.19 100.69 634.07 183.85 679.68 188.48 682.22"/><polyline class="cls-7" points="300.06 734.59 301.59 737.09 270.58 783.21 160.87 704.29"/><path class="cls-7" d="M927.41,535.49c-71.47,5.29-139.26,22.15-208.3,45.66L671.28,456.94c77.58-35.17,157.09-54.77,238.44-59.4L924.41,512Z"/><path class="cls-7" d="M1539.91,804.68A924,924,0,0,0,1444.67,719c-23.59-18.36-49.84-36.63-76.65-51.33-1.41-.78-2.83-1.54-4.25-2.3-31.71-16.89-71.4-31-109.6-42.24a1291.91,1291.91,0,0,0-136.91-31.71l14.85-73.55,8.56-41.35-4.43-.7,12.29-73.19s115.26,32.66,149.79,45.56,84.3,39.09,84.3,39.09l34,19.22"/><polygon class="cls-7" points="1539.91 804.68 1569.57 837.37 1611 792.42 1605.13 788.18 1627.69 762.24 1568.6 698.2 1500.02 765.86 1539.91 804.68"/><path class="cls-7" d="M1611,792.42l50.07,34.06c-4,9.73-8.53,18.84-9.4,41.65,0,0-1-.57-1-.57l-67.34-45.18Z"/><path class="cls-7" d="M1732,769.65s93.15-23.39,116.46,24.5c13.84,28.42-6.49,80.52-43.59,104.09-41.7,26.49-111.1,43-142.88,4.45-20.87-25.34-10.54-90.8,35.59-116.5Z"/><line class="cls-7" x1="1737.06" y1="660.28" x2="1802.35" y2="765.86"/><line class="cls-7" x1="1060.17" y1="269.49" x2="1194.42" y2="293.03"/><path class="cls-7" d="M1435.74,470.5l-19.22-8.17,6.08-12.78-24.73-12.19-5.77,12.29-40.65-18.51,34-69.56,22,9.92-13.2-6,10.51-19.77,11.18,4.94L1374,332.21,1330,422l-48.73-22.47-74-22.69,2.4-10L1019,331.45V345.4l-111.18-2.11-42.18-.36v-10.5L673,365.36l3.24,13.86-77.15,22.4-47.81,18.79L508,330.5l-33.08,15.83,9.28,19.21-10.71,5.6L496,360.37l33.64,71.57-41.79,19.28-6.7-13.42-22.72,11.63,5.72,11.77-18.25,8.51L367.66,519.8l-109,95.83-70.17,66.59L167.35,709l0,0-3.7-2.7,3.72,2.68,103.23,74.21,31-46.12h0L366.82,665l65.82,83,0,0m821.49-124.91a1291.91,1291.91,0,0,0-136.91-31.71l14.85-73.55-30.75-2.59-53.68-3.38,0-.32q-62.06-2.67-123.29.48l3,23.48c-71.47,5.29-139.26,22.15-208.3,45.66l-7.39-18.41M277.54,697.53l24,39.56L366.82,665"/><path class="cls-7" d="M1737.17,660.56l-78.5,45.24h0c-.71-.95-64.07-77-64.07-77l-80.79-71-3.89,6.36-93.27-57.64,19.1-35.95,25.27-46,91.44,65.76,96.29,82.05Z"/><path class="cls-7" d="M711.72,562.74s-87,34.5-138.6,69.36S434.41,746.18,432.68,748l0,0-65.82-83-65.23,72.09-24-39.56,47.67-50.67-4.43-1.93,63.93-61.33,15.58,17C426.4,565.26,572.8,475.74,621.92,455.7l10.49,23.19L672.09,461Z"/><polyline class="cls-7" points="1140.67 476.47 1294.74 526.46 1254.17 623.08"/><line class="cls-7" x1="1185.87" y1="413.94" x2="1169.02" y2="485.67"/><line class="cls-7" x1="1552.45" y1="490.29" x2="1597.36" y2="424.78"/><polyline class="cls-7" points="1710.28 520.2 1648.74 572.34 1594.59 628.76 1513.8 557.73 1552.45 490.29"/><polygon class="cls-7" points="1216.97 340.3 1292.6 366.8 1281.26 399.53 1207.29 376.84 1216.97 340.3"/><line class="cls-7" x1="1241.6" y1="387.36" x2="1254.17" y2="353.33"/><polygon class="cls-7" points="1208.99 241.51 1219.36 205.49 1336.93 242.73 1329.47 264.91 1292.6 366.8 1216.97 340.3 1228.17 299.55 1194.42 293.02 1208.99 241.51"/><polygon class="cls-7" points="490.65 294.57 452.2 311.77 469.06 348.81 507.97 330.5 490.65 294.57"/><polyline class="cls-7" points="115.12 641.99 198.03 552.88 309.58 458.12 406.36 397.54"/><polyline class="cls-7" points="993.55 427.16 993.55 481.84 1050.42 484.65 1050.51 512.03"/><line class="cls-7" x1="1244.23" y1="509.98" x2="1265.91" y2="437.42"/><polygon class="cls-7" points="1658.67 705.8 1612.97 746.29 1568.6 698.2 1576.69 690.22 1493.55 623.08 1358.16 539.59 1382.62 487.23 1416.64 506.44 1509.91 564.09 1513.8 557.73 1594.59 628.76 1658.66 705.79 1658.67 705.8"/><polyline class="cls-7" points="1363.77 665.32 1414.5 574.33 1493.55 623.08 1432.89 709.97"/><line class="cls-7" x1="1500.02" y1="765.86" x2="1576.69" y2="690.22"/><line class="cls-7" x1="1326.66" y1="459.96" x2="1294.75" y2="526.45"/><polygon class="cls-7" points="588.56 368.78 628.13 356.71 640.19 389.69 676.25 379.22 667.88 343.39 628.13 356.71 640.19 389.69 599.1 401.62 588.56 368.78"/><polygon class="cls-7" points="907.94 303.91 943.13 303.91 975.18 304.27 975.18 344.57 907.82 343.29 907.94 303.91"/><polygon class="cls-7" points="1694.64 685.07 1722.38 725.87 1758.28 694.6 1737.17 660.56 1694.64 685.07"/><polygon class="cls-7" points="1281.26 399.53 1301.18 343.1 1356.93 367.05 1329.98 422 1281.26 399.53"/><polygon class="cls-7" points="528.21 372.51 581.44 346.58 599.1 401.62 551.29 420.41 528.21 372.51"/><polygon class="cls-7" points="229.02 716.16 265.69 745.51 272.78 737.54 258.65 718.56 277.54 697.53 301.59 737.09 270.58 783.21 208.82 738.81 229.02 716.16"/><polygon class="cls-7" points="320.78 644.93 366.82 665 415.69 617.44 384.71 583.6 320.78 644.93"/><line class="cls-7" x1="552.19" y1="492.13" x2="614.38" y2="607.71"/><rect class="cls-8" x="993.55" y="427.16" width="44.36" height="12.03"/><rect class="cls-7" x="993.55" y="427.16" width="44.36" height="12.03"/><path class="cls-7" d="M1037.91,427.16h45.34v-52C707.78,339,423.9,461.43,208.82,703.08L229,716.16"/></g></svg>