<svg xmlns="http://www.w3.org/2000/svg" viewBox="0 0 1920 1080"><defs><style>.cls-1{fill:#ffca3a;}.cls-2{fill:#8ac926;}.cls-3{fill:#ff940a;}.cls-4{fill:#e2e3e2;}.cls-5{fill:#9fff9f;}.cls-6{fill:#ebb4ff;}.cls-7{fill:#b3b3b3;}.cls-8{fill:#1982c4;}.cls-9{fill:#a6aaab;}.cls-10{fill:none;stroke:#000;stroke-miterlimit:10;}</style></defs><g id="floor1_colors" data-name="floor1 colors"><polygon class="cls-1" points="264.07 638.14 190.67 707.28 186.04 704.74 106.11 656.59 51.91 622.46 148.37 518.07 172.96 543.6 249.48 623 264.07 638.14"/><polygon class="cls-1" points="346.57 561.8 264.07 638.14 249.46 623.01 172.82 543.71 172.96 543.6 289.6 443.64 289.72 443.52 335.26 510.1 345.38 524.91 327.75 536.82 346.57 561.8"/><polygon class="cls-2" points="451.34 492.23 373.07 542.32 356.91 517.47 345.38 524.91 335.24 510.14 289.6 443.64 271.23 416.88 368.64 350.36 408.14 414.2 419.53 432.59 451.34 492.23"/><polygon class="cls-3" points="489.59 388.06 478.87 393.66 481.4 399.94 418.94 430.6 408.42 413.84 381.24 370.58 475.59 325.43 492.45 362.47 480.31 368.85 489.59 388.06"/><polygon class="cls-4" points="585.68 365.32 532.11 391.88 496.07 317.08 560 285.42 560.06 285.38 570.26 317.2 585.68 365.32"/><polyline class="cls-5" points="624.69 380.9 702.82 357.44 691.71 317.38 677.32 265.44 667.43 229.81 553.13 264 560 285.42 570.2 317.2 604.51 424.14"/><polygon class="cls-6" points="778.6 385.93 737.01 392.63 735.92 385.99 731.47 359.21 775.44 351.28 778.6 385.93"/><polygon class="cls-6" points="819.51 377.76 778.6 385.93 775.44 351.28 819.5 343.76 819.51 377.76"/><polyline class="cls-5" points="949.73 195.88 1068.41 200.99 1056.09 331.6"/><polygon class="cls-6" points="1120.67 351.95 1120.67 351.99 1115.29 388.31 1070.93 381.69 1071.99 343.23 1120.67 351.95"/><polygon class="cls-6" points="1161.81 359.39 1158.57 376.21 1155.23 393.56 1115.29 388.31 1120.67 351.99 1120.67 351.95 1161.81 359.39"/><polygon class="cls-7" points="1362.82 389.31 1336.94 441.41 1288.78 418.82 1308.62 364.93 1362.82 389.31"/><polygon class="cls-4" points="1441.75 339.05 1435.67 349.19 1421.28 373.23 1400.01 363.4 1416.9 328.02 1441.75 339.05"/><polygon class="cls-3" points="1509.19 367.54 1472.37 428.61 1409.15 402.17 1412.79 394.02 1399.81 387.66 1410.34 368.77 1421.28 373.23 1435.67 349.19 1441.75 339.05 1509.19 367.54"/><polygon class="cls-2" points="1845.32 625.62 1735.28 687.17 1697.55 708.28 1669.8 675.46 1640.95 641.32 1663.73 622.58 1637.77 597.79 1631.61 603.37 1566.16 548.39 1552.7 562.44 1441.56 492.62 1472.37 428.61 1519.98 349.65 1625.05 416.66 1602.78 447.3 1715.7 542.72 1743.53 519.46 1845.32 625.62"/><polygon class="cls-4" points="190.67 707.28 172.74 731.54 169.05 728.84 166.28 726.81 117.84 794.6 47.18 743.71 106.11 656.59 186.04 704.74 190.67 707.28"/><path class="cls-6" d="M1736.37,790.08s94.17-21.31,117.49,26.58c13.84,28.43-15.52,82.76-45.52,103.58s-109.89,42.87-141.3,4.47c-24.56-30-5.53-78.45,35.94-116"/><polygon class="cls-6" points="1610.61 733.96 1643.12 765.28 1626.44 787.64 1643.14 802.35 1634.59 816.27 1654.45 828.64 1665.8 814.88 1685.94 826.8 1801.35 786.48 1745.72 698.96 1737.45 685.95 1697.55 708.28 1670.17 675.12 1610.61 733.96"/><polygon class="cls-4" points="1112.44 454.51 1106.8 537.45 1106.78 537.75 1053.12 534.05 1053.65 509.42 1018.73 509.42 1018.73 454.51 1112.44 454.51"/><polygon class="cls-6" points="1137.59 540.34 1137.53 540.34 1106.78 537.75 1106.8 537.45 1111.47 469.03 1150.41 476.46 1137.59 540.34"/><path class="cls-3" d="M346.57,650.3,438.1,770.5c56.26-53.85,115.14-103.35,180.63-141.86l-65.6-119.28a742.63,742.63,0,0,0-151,108.94l-15.27-12.18Z"/><polygon class="cls-6" points="327.75 536.82 346.57 561.8 373.07 542.32 356.91 517.47 327.75 536.82"/><polygon class="cls-4" points="481.4 399.94 478.87 393.66 501.44 382.89 535.08 454.45 493.29 473.74 486.59 460.32 463.87 471.95 469.59 483.72 451.34 492.23 418.94 430.6 481.4 399.94"/><polygon class="cls-6" points="1071.99 331.48 1071.47 361.87 1040.48 362.21 1038.49 331.93 1071.99 331.48"/><polygon class="cls-6" points="819.5 330.8 819.51 362.96 852.91 361.81 852.65 330.19 819.5 330.8"/><polygon class="cls-6" points="903.55 367.86 903.61 328.1 868.68 329.38 869.02 368.97 903.55 367.86"/><path class="cls-6" d="M676,479.69l48.51,124c69.62-23.74,139.06-39.47,208.3-45.66L915.14,420.06C832.4,436.3,751.87,455.93,676,479.69Z"/><path class="cls-8" d="M1122.53,613.87l31.57-155.62L1268,486.06l1.86-9.81,30.75,5.84,3.12-10.5a539.15,539.15,0,0,1,138.82,68.94l-5,8,27.27,21.41,9.9-11.67A986.81,986.81,0,0,1,1646.52,697L1534,812.89S1439.85,720,1356.85,681C1267.67,638.94,1122.53,613.87,1122.53,613.87Z"/><path class="cls-2" d="M604.57,424.37,736,386.22l-4.46-26.77,88.05-15.29,0-13.12,33.16,0,.13,30.14,16.45.05-.55-31,34.92-1.87,0,32.29,136.62-1.75-1.69-26.7,33.49-.57v11.87l48.69,8.76,41.13,7.39L1157.47,383l131.37,36.64L1345,267.22l-119.45-34.05-11.32,31.77a1046.34,1046.34,0,0,1-149.13-25.35l3.38-38.37-118.69-5.1-123.85,6.1,1.59,37.37L677.37,265.67l-9.88-35.62L553.18,264.24Z"/><polygon class="cls-3" points="1116.44 426.54 1115.07 434.02 1112.44 454.51 1111.47 469.03 1150.41 476.46 1159.46 432.15 1116.44 426.54"/><polygon class="cls-6" points="1637.77 597.79 1663.73 622.58 1640.95 641.32 1616.7 620.23 1605.82 629.04 1541.83 573.99 1566.16 548.39 1631.61 603.37 1637.77 597.79"/><polygon class="cls-4" points="1409.15 402.17 1412.79 394.02 1399.81 387.66 1390.82 384.1 1356.87 453.66 1395.99 473.04 1402.02 460.56 1428.02 472.07 1422.53 483.04 1441.56 492.62 1472.37 428.61 1409.15 402.17"/><path class="cls-6" d="M572.82,499.25l25.27,44.8L686,505.31l-19.13-49.25C636.73,468.16,605.23,482.88,572.82,499.25Z"/><polygon class="cls-4" points="553.13 509.36 573.02 499.42 598.09 544.05 686.55 505.04 717.13 585.26 618.73 628.64 553.13 509.36"/><polygon class="cls-7" points="1608.72 766.94 1626.44 787.64 1630.01 790.79 1590.65 847.68 1575.46 859.52 1545.33 827.2 1608.72 766.94"/><path class="cls-4" d="M1665.8,814.88l-11.35,13.76-19.86-12.37,8.55-13.92L1630,790.79l-39.36,56.39,65.51,42.88c1.92-19.51,11.91-40.48,30.26-62.95Z"/><polygon class="cls-9" points="1758.75 719.47 1737.45 685.95 1697.55 708.28 1725.47 748.96 1758.75 719.47"/><polygon class="cls-7" points="604.57 424.37 585.68 365.32 532.11 391.88 556.7 442.92 604.57 424.37"/><polygon class="cls-4" points="1308.62 364.93 1336.91 288.52 1398.02 318.48 1362.82 389.31 1308.62 364.93"/><polygon class="cls-7" points="216.4 762.89 233.22 737.65 273.14 766.27 278.6 757.95 265.94 740.05 282.96 720.05 307.01 759.61 276 805.73 216.4 762.89"/><rect class="cls-7" x="974.37" y="454.51" width="44.36" height="12.03"/></g><g id="floor1"><polygon class="cls-10" points="264.07 638.14 190.67 707.28 186.04 704.74 106.11 656.59 51.91 622.46 148.37 518.07 172.96 543.6 249.48 623 264.07 638.14"/><polygon class="cls-10" points="346.57 561.8 264.07 638.14 249.46 623.01 172.82 543.71 172.96 543.6 289.6 443.64 289.72 443.52 335.26 510.1 345.38 524.91 327.75 536.82 346.57 561.8"/><polygon class="cls-10" points="373.07 542.32 346.57 561.8 327.75 536.82 356.91 517.47 373.07 542.32"/><polygon class="cls-10" points="451.34 492.23 373.07 542.32 356.91 517.47 345.38 524.91 335.24 510.14 289.6 443.64 271.23 416.88 368.64 350.36 408.14 414.2 419.53 432.59 451.34 492.23"/><polygon class="cls-10" points="535.07 454.45 493.29 473.74 486.59 460.32 463.87 471.95 469.59 483.72 451.34 492.23 418.94 430.6 481.4 399.94 478.87 393.66 501.44 382.89 535.07 454.45"/><polygon class="cls-10" points="489.59 388.06 478.87 393.66 481.4 399.94 418.94 430.6 408.42 413.84 381.24 370.58 475.59 325.43 492.45 362.47 480.31 368.85 489.59 388.06"/><polygon class="cls-10" points="604.51 424.14 556.7 442.92 496.07 317.08 560 285.42 560.06 285.38 570.26 317.2 604.51 424.14"/><polyline class="cls-10" points="624.69 380.9 702.82 357.44 691.71 317.38 677.32 265.44 667.43 229.81 553.13 264 560 285.42 570.2 317.2 604.51 424.14"/><line class="cls-10" x1="736.32" y1="385.87" x2="735.92" y2="385.99"/><polyline class="cls-10" points="676.38 265.6 827.47 239.35 825.88 201.98 949.73 195.88 948.54 326.43 1020.3 327.22"/><polyline class="cls-10" points="833.43 330.42 819.5 330.8 819.5 343.92 819.5 344.66"/><polyline class="cls-10" points="852.78 360.33 852.65 330.19 833.43 330.42 832.62 317.6 827.47 239.35"/><polygon class="cls-10" points="778.6 385.93 737.01 392.63 735.92 385.99 731.47 359.21 775.44 351.28 778.6 385.93"/><polygon class="cls-10" points="819.51 343.92 819.5 344.66 819.51 377.76 778.6 385.93 775.44 351.28 819.5 343.92 819.51 343.92"/><polygon class="cls-10" points="903.61 328.1 903.57 360.38 903.55 367.86 869.29 368.27 869.27 358.73 868.68 329.25 903.61 328.1"/><polyline class="cls-10" points="1040.18 358.63 1038.49 331.93 1071.99 331.48"/><line class="cls-10" x1="903.57" y1="360.38" x2="903.01" y2="360.38"/><polyline class="cls-10" points="949.73 195.88 1068.41 200.99 1056.09 331.6"/><polygon class="cls-10" points="1120.67 351.95 1120.67 351.99 1115.29 388.31 1070.93 381.69 1071.99 343.23 1120.67 351.95"/><polygon class="cls-10" points="1161.81 359.39 1158.57 376.21 1155.23 393.56 1115.29 388.31 1120.67 351.99 1120.67 351.95 1161.81 359.39"/><path class="cls-10" d="M1344.94,267l-8,21.53-11.13,29.84-37,100.46-131.36-36.64,4.39-22.79-41.14-7.4L1072,343.23V331.48l-15.9.12,1.33-13.64,7.61-78.61c50.85,11.83,100.2,22.51,149.14,25.35l.24-.68,0,0,11-31.05Z"/><polygon class="cls-10" points="1398.02 318.48 1336.94 441.41 1288.78 418.82 1325.68 318.36 1336.79 288.46 1336.91 288.52 1398.02 318.48"/><polygon class="cls-10" points="1472.37 428.61 1441.56 492.62 1422.53 483.04 1428.02 472.07 1402.02 460.56 1395.99 473.04 1356.87 453.66 1390.82 384.1 1412.79 394.02 1409.15 402.17 1472.37 428.61"/><polygon class="cls-10" points="1441.75 339.05 1435.67 349.19 1421.28 373.23 1400.01 363.4 1416.9 328.02 1441.75 339.05"/><polygon class="cls-10" points="1509.19 367.54 1472.37 428.61 1409.15 402.17 1412.79 394.02 1399.81 387.66 1410.34 368.77 1421.28 373.23 1435.67 349.19 1441.75 339.05 1509.19 367.54"/><polygon class="cls-10" points="1845.32 625.62 1735.28 687.17 1697.55 708.28 1669.8 675.46 1640.95 641.32 1663.73 622.58 1637.77 597.79 1631.61 603.37 1566.16 548.39 1552.7 562.44 1441.56 492.62 1472.37 428.61 1486.01 405.99 1519.98 349.65 1625.05 416.66 1602.78 447.3 1715.7 542.72 1743.53 519.46 1845.32 625.62"/><polygon class="cls-10" points="1663.73 622.58 1640.95 641.32 1616.7 620.23 1605.82 629.04 1541.83 573.99 1566.16 548.39 1631.61 603.37 1637.77 597.79 1663.73 622.58"/><polygon class="cls-10" points="190.67 707.28 172.74 731.54 169.05 728.84 166.28 726.81 117.84 794.6 47.18 743.71 106.11 656.59 186.04 704.74 190.67 707.28"/><polyline class="cls-10" points="305.48 757.1 307.01 759.61 276 805.73 166.28 726.81"/><path class="cls-10" d="M717.13,585.26l-98.4,43.38-65.6-119.28q56.51-29.55,113.69-53.3Z"/><path class="cls-10" d="M932.83,558c-71.47,5.29-139.26,22.14-208.3,45.66L676,479.75c78.41-23.65,158.58-43.69,239.12-59.69l14.69,114.47Z"/><path class="cls-10" d="M1442.55,540.53l-5,8,27.27,21.41,9.9-11.67s51.39,33,74.67,51.58,97.1,87.18,97.1,87.18l-35.91,37L1534,812.89s-74.16-76.74-164.81-125-246.51-74-246.51-74l14.85-73.56,12.85-63.71,3.87-18.35L1268,486.06l1.86-9.81,30.75,5.84,3.12-10.5"/><path class="cls-10" d="M1685.94,826.8l-.92,2c-12.5,15.79-27.19,38.79-28.86,61.29l0,0-65.49-42.4L1575,859.88l-29.66-32.68,63.39-60.26,17.72,20.7,16.7,14.71-8.55,13.92,19.86,12.37,11.35-13.76Z"/><path class="cls-10" d="M1736.93,792s93.61-23.21,116.93,24.68c13.84,28.43-15.52,82.76-45.52,103.58s-108.35,42.86-140.95,5c-9.24-10.74-12.17-22.86-11.25-35.13"/><path class="cls-10" d="M1703,808.71a205.77,205.77,0,0,0-18,20.06"/><polyline class="cls-10" points="1626.44 787.64 1643.43 765.59 1610.61 733.96 1610.34 733.71 1646.52 696.99"/><polyline class="cls-10" points="1669.8 675.46 1697.55 708.28 1737.45 685.95 1801.35 786.48"/><polyline class="cls-10" points="989.37 454.51 989.37 434.22 1115.07 434.02 1112.45 454.51 1018.73 454.51 1018.73 509.42 989.37 509.42 989.37 466.54"/><polygon class="cls-10" points="989.37 509.42 974.37 509.42 974.37 494.21 983.24 494.21 983.24 478.3 974.37 478.3 974.37 466.54 989.37 466.54 989.37 509.42"/><polygon class="cls-10" points="1116.44 426.54 1115.07 434.02 989.37 434.22 989.37 449.42 977.12 449.42 977.12 422.6 1007.96 422.6 1007.96 428.67 1025.27 428.67 1025.27 422.12 1063.72 421.84 1063.74 428.58 1078.54 429.21 1078.51 423.44 1116.44 426.54"/><polygon class="cls-10" points="1112.44 454.51 1106.8 537.45 1106.78 537.75 1053.12 534.05 1053.65 509.42 1018.73 509.42 1018.73 454.51 1112.44 454.51"/><polygon class="cls-10" points="1137.59 540.34 1137.53 540.34 1106.78 537.75 1106.8 537.45 1111.47 469.03 1150.41 476.46 1137.59 540.34"/><polyline class="cls-10" points="1276.13 381.92 1188.88 354.26 1214.92 262.21"/><path class="cls-10" d="M1115.07,426.42l44.39,6.17-5.21,25.68L1268,486.06l1.86-9.81,30.75,5.84,3.12-10.5c51.71,17.47,98.51,39.92,138.82,68.94l-5,8,27.27,21.41,9.9-11.67s51.39,33,74.67,51.58,97.1,87.18,97.1,87.18l23.28-21.53L1641,641.32l-24.25-21.09L1605.82,629l-64-55,24.33-25.6-13.46,14.05-111.14-69.82,30.81-64-30.81,64-19-9.58,5.49-11-26-11.51L1396,473l-39.12-19.38,34-69.56,22,9.92-13-6.36,10.53-18.89,10.94,4.45L1400,363.4,1416.9,328,1398,318.48l-61.08,122.93-48.16-22.59-131.36-36.64-2.19,11.38-39.94-5.25-44.36-6.62,1.06-50.21-.65,30.73h-30.86l-.3-3.58-136.61,1.75,0,7.48-34.26.41,0-7.89-16.46-.05v1.49L819.51,363v-18.3l0,33.1-40.92,8.17L737,392.63,735.92,386,604.51,424.14,556.7,442.92,496.07,317.08l-20.48,8.35,16.86,37-12.14,6.38,9.28,19.2-10.72,5.61,22.57-10.77,33.63,71.56-41.78,19.29-6.7-13.42L463.86,472l5.73,11.77-18.25,8.51-78.27,50.09-26.5,19.48-82.5,76.34-73.4,69.15-17.91,24.23,0,0-3.69-2.7,3.71,2.68L276,805.73l31-46.12-1.53-2.51,65.9-74.6,66.68,88,0,0M1646.52,697,1534,812.89s-74.16-76.74-164.81-125-246.51-74-246.51-74l14.85-73.56-30.75-2.58-53.66-3.7q-62.05-2.68-123.29.48l3,23.48c-71.47,5.29-139.26,22.14-208.3,45.66L676,479.63C754.43,456,834.6,436.06,915.14,420.06m-248.32,36q-57.2,23.78-113.69,53.3L527.68,525l-13.92,8.55c-42,26-80.23,53.83-111.62,84.72l-15.27-12.18L283,720.05l22.52,37.05,65.9-74.6,66.68,88,0,0c1.73-1.81,57.29-53.2,96.38-84.19,39.7-31.49,84.25-57.67,84.25-57.67l98.4-43.38Z"/><path class="cls-10" d="M717.13,585.26l-98.4,43.38s-44.55,26.18-84.25,57.67c-39.09,31-94.65,82.38-96.38,84.19l0,0-66.68-88-65.9,74.6L283,720.05,386.87,606.12l15.27,12.18c31.39-30.89,69.62-58.68,111.62-84.72L527.68,525l25.45-15.67q56.51-29.55,113.69-53.3Z"/><line class="cls-10" x1="852.79" y1="359.63" x2="852.65" y2="359.63"/><line class="cls-10" x1="1369.19" y1="687.84" x2="1451.49" y2="559.41"/><line class="cls-10" x1="1293.36" y1="531.98" x2="1248.11" y2="642.55"/><line class="cls-10" x1="1555.08" y1="614.46" x2="1455.28" y2="744.08"/><polyline class="cls-10" points="1474.36 476.92 1549.7 524.43 1602.78 447.3"/><line class="cls-10" x1="1715.7" y1="542.72" x2="1644.48" y2="603.06"/><line class="cls-10" x1="1729.42" y1="690.53" x2="1680.31" y2="636.16"/><line class="cls-10" x1="1590.65" y1="847.68" x2="1630.01" y2="790.79"/><line class="cls-10" x1="1534" y1="812.89" x2="1545.33" y2="827.2"/><path class="cls-10" d="M572.9,499.21l25.19,44.84L686,505.31l-19.13-49.25Q618.54,475.85,572.9,499.21Z"/><polygon class="cls-10" points="1616.7 620.23 1631.61 603.37 1637.77 597.79 1663.73 622.58 1640.95 641.32 1616.7 620.23"/><polygon class="cls-10" points="1571.29 599.33 1596.65 574 1566.16 548.39 1541.83 573.99 1571.29 599.33"/><polygon class="cls-10" points="532.11 391.88 585.64 365.32 604.51 424.14 556.7 442.92 532.11 391.88"/><polygon class="cls-10" points="282.96 720.05 265.94 740.05 278.6 757.95 273.14 766.27 233.22 737.65 216.45 762.92 276 805.73 307.01 759.61 282.96 720.05"/><polygon class="cls-10" points="1288.78 418.82 1308.62 364.93 1362.74 389.22 1336.94 441.41 1288.78 418.82"/><polygon class="cls-10" points="1697.47 708.28 1725.44 748.96 1758.75 719.46 1737.45 685.95 1697.47 708.28"/><rect class="cls-10" x="974.37" y="454.51" width="44.36" height="12.03"/></g></svg>