<svg xmlns="http://www.w3.org/2000/svg" viewBox="0 0 1080 1080"><defs><style>.cls-1{fill:#ab1c40;}.cls-2{fill:#ec8e36;}.cls-3{fill:#679944;}.cls-4{fill:#1277bc;}.cls-5{fill:#3a4c8e;}</style></defs><g id="Layer_9" data-name="Layer 9"><path class="cls-1" d="M422,399.45l18.25,75.06S702,243.91,837.9,283.81c23,15.55,12.17,59.51,12.17,59.51l10.15,16.23s26.37-65.59,3.38-90.62-55.46-38.54-133.9-23.66S463.26,352.79,422,399.45"/><path class="cls-2" d="M632.44,356.79,568,399.41S873.65,567.49,882.18,708.89c-6.85,26.9-51.87,31.62-51.87,31.62l-11.83,15s70.65,2.59,86.4-27.52,17.48-65.24-23.11-134S690.32,379.79,632.44,356.79"/><path class="cls-3" d="M748.83,551.48l-59-49.92s-75.7,340.5-209,388.31c-27.74,1-44.88-40.93-44.88-40.93l-17.76-7.14s17.32,68.54,50.64,75.22,67.51-1.5,122.15-59.73S743,613.48,748.83,551.48"/><path class="cls-4" d="M603.88,709.88l27-72.39s-346,44.17-436.17-65.09c-10.31-25.77,23.3-56.1,23.3-56.1l.7-19.12s-58.62,39.52-53.62,73.13,24.3,63,97.59,94.68,280.9,60.39,341.23,44.89"/><path class="cls-5" d="M398,624.48l77.13,4.33s-144.64-317.4-67-435.88c21.56-17.48,60.48,5.64,60.48,5.64l18.47-5S432,149.29,401.36,164s-53,41.87-61.54,121.25S365.32,571.46,398,624.48"/><path class="cls-1" d="M796.87,334.09a16.72,16.72,0,1,1-16.41-17,16.73,16.73,0,0,1,16.41,17"/><path class="cls-1" d="M832.27,385.4a16.72,16.72,0,1,1-16.41-17,16.73,16.73,0,0,1,16.41,17"/><path class="cls-1" d="M854.61,440.37a16.72,16.72,0,1,1-16.4-17,16.71,16.71,0,0,1,16.4,17"/><path class="cls-1" d="M867.12,500.35a16.72,16.72,0,1,1-16.4-17,16.71,16.71,0,0,1,16.4,17"/><path class="cls-2" d="M814.55,688.3A16.72,16.72,0,1,1,825,667.1a16.72,16.72,0,0,1-10.46,21.2"/><path class="cls-2" d="M778.26,739a16.72,16.72,0,1,1,10.47-21.21A16.72,16.72,0,0,1,778.26,739"/><path class="cls-2" d="M734.12,778.65a16.72,16.72,0,1,1,10.47-21.2,16.72,16.72,0,0,1-10.47,21.2"/><path class="cls-2" d="M681.93,810.75a16.72,16.72,0,1,1,10.47-21.21,16.72,16.72,0,0,1-10.47,21.21"/><path class="cls-3" d="M474.66,820.11a16.72,16.72,0,1,1,23.29,4.1,16.72,16.72,0,0,1-23.29-4.1"/><path class="cls-3" d="M415.83,799.49a16.72,16.72,0,1,1,23.28,4.1,16.72,16.72,0,0,1-23.28-4.1"/><path class="cls-3" d="M365.4,768.22a16.71,16.71,0,1,1,23.28,4.11,16.71,16.71,0,0,1-23.28-4.11"/><path class="cls-3" d="M320,727.12a16.72,16.72,0,1,1,23.29,4.1,16.72,16.72,0,0,1-23.29-4.1"/><path class="cls-4" d="M251.77,544.26a16.71,16.71,0,1,1,4,23.29,16.71,16.71,0,0,1-4-23.29"/><path class="cls-4" d="M251.23,481.92a16.72,16.72,0,1,1,4,23.29,16.72,16.72,0,0,1-4-23.29"/><path class="cls-4" d="M263.55,423.87a16.72,16.72,0,1,1,4,23.3,16.73,16.73,0,0,1-4-23.3"/><path class="cls-4" d="M286.83,367.2a16.71,16.71,0,1,1,4,23.3,16.72,16.72,0,0,1-4-23.3"/><path class="cls-5" d="M445.28,240.05a16.71,16.71,0,1,1-21.06,10.74,16.72,16.72,0,0,1,21.06-10.74"/><path class="cls-5" d="M504.66,221.07a16.72,16.72,0,1,1-21.05,10.75,16.72,16.72,0,0,1,21.05-10.75"/><path class="cls-5" d="M563.75,215.66a16.72,16.72,0,1,1-21.06,10.75,16.71,16.71,0,0,1,21.06-10.75"/><path class="cls-5" d="M624.78,221.11a16.71,16.71,0,1,1-21.06,10.74,16.72,16.72,0,0,1,21.06-10.74"/></g></svg>
